<svg width="56" height="56" viewBox="0 0 56 56" fill="none" xmlns="http://www.w3.org/2000/svg">
<g id="Frame" clip-path="url(#clip0_1915_2779)">
<path id="Vector" d="M20.2207 13.9231H35.7793" stroke="#6E3D9F" stroke-width="2" stroke-miterlimit="10" stroke-linecap="round" stroke-linejoin="round"/>
<g id="Clip path group">
<mask id="mask0_1915_2779" style="mask-type:luminance" maskUnits="userSpaceOnUse" x="0" y="0" width="56" height="56">
<g id="a">
<path id="Vector_2" d="M0 0.000164032H55.9998V56H0V0.000164032Z" fill="white"/>
</g>
</mask>
<g mask="url(#mask0_1915_2779)">
<g id="Group">
<path id="Vector_3" d="M15.75 21.8855V24.0196C15.75 24.2859 15.8558 24.5413 16.0441 24.7296C16.2324 24.9179 16.4878 25.0237 16.7541 25.0237H39.2461C39.5124 25.0237 39.7678 24.9179 39.9561 24.7296C40.1444 24.5413 40.2501 24.2859 40.2501 24.0196V21.8855C40.2501 21.6192 40.1444 21.3638 39.9561 21.1755C39.7678 20.9872 39.5124 20.8814 39.2461 20.8814H16.7541C16.4878 20.8814 16.2324 20.9872 16.0441 21.1755C15.8558 21.3638 15.75 21.6192 15.75 21.8855Z" stroke="#6E3D9F" stroke-width="2" stroke-miterlimit="10" stroke-linecap="round" stroke-linejoin="round"/>
<path id="Vector_4" d="M15.75 31.1705V33.3046C15.75 33.5709 15.8558 33.8263 16.0441 34.0146C16.2324 34.2028 16.4878 34.3086 16.7541 34.3086H39.2461C39.5124 34.3086 39.7677 34.2028 39.956 34.0146C40.1443 33.8263 40.2501 33.5709 40.2501 33.3046V31.1705C40.2501 30.9042 40.1444 30.6488 39.9561 30.4605C39.7678 30.2722 39.5124 30.1665 39.2461 30.1665H16.7541C16.4878 30.1665 16.2324 30.2722 16.0441 30.4605C15.8558 30.6488 15.75 30.9042 15.75 31.1705Z" stroke="#6E3D9F" stroke-width="2" stroke-miterlimit="10" stroke-linecap="round" stroke-linejoin="round"/>
<path id="Vector_5" d="M29.9086 40.0409H26.0925C24.9919 40.0409 24.0996 40.9332 24.0996 42.0339V42.1454C24.0996 43.2461 24.9919 44.1384 26.0925 44.1384H29.9086C31.0092 44.1384 31.9016 43.2461 31.9016 42.1454V42.0339C31.9016 40.9332 31.0092 40.0409 29.9086 40.0409Z" stroke="#6E3D9F" stroke-width="2" stroke-miterlimit="10" stroke-linecap="round" stroke-linejoin="round"/>
<path id="Vector_6" d="M45.2044 0.820514H10.7961C9.49998 0.820514 8.44922 1.87128 8.44922 3.16748V9.11243H47.5513V3.16748C47.5513 1.87128 46.5006 0.820514 45.2044 0.820514Z" stroke="#6E3D9F" stroke-width="2" stroke-miterlimit="10" stroke-linecap="round" stroke-linejoin="round"/>
<path id="Vector_7" d="M8.44922 15.5638V48.7242C8.44922 50.0204 9.49998 51.0712 10.7962 51.0712H31.9013" stroke="#6E3D9F" stroke-width="2" stroke-miterlimit="10" stroke-linecap="round" stroke-linejoin="round"/>
<path id="Vector_8" d="M46.118 50.8868C46.9604 50.5305 47.5514 49.6964 47.5514 48.7243V3.16755C47.5514 1.87135 46.5007 0.820585 45.2045 0.820585H10.7962C9.50009 0.820585 8.44922 1.87135 8.44922 3.16755V12.2827" stroke="#6E3D9F" stroke-width="2" stroke-miterlimit="10" stroke-linecap="round" stroke-linejoin="round"/>
<path id="Vector_9" d="M13.6561 3.27706C12.7231 3.27706 11.9668 4.03338 11.9668 4.96635C11.9668 5.89931 12.7231 6.65564 13.6561 6.65564C14.5891 6.65564 15.3454 5.89931 15.3454 4.96635C15.3454 4.03338 14.5891 3.27706 13.6561 3.27706Z" stroke="#6E3D9F" stroke-width="2" stroke-miterlimit="10" stroke-linecap="round" stroke-linejoin="round"/>
<path id="Vector_10" d="M20.2205 3.27706C19.2876 3.27706 18.5312 4.03338 18.5312 4.96635C18.5312 5.89931 19.2876 6.65564 20.2205 6.65564C21.1535 6.65564 21.9098 5.89931 21.9098 4.96635C21.9098 4.03338 21.1535 3.27706 20.2205 3.27706Z" stroke="#6E3D9F" stroke-width="2" stroke-miterlimit="10" stroke-linecap="round" stroke-linejoin="round"/>
<path id="Vector_11" d="M26.7869 3.27706C25.854 3.27706 25.0977 4.03338 25.0977 4.96635C25.0977 5.89931 25.854 6.65564 26.7869 6.65564C27.7199 6.65564 28.4762 5.89931 28.4762 4.96635C28.4762 4.03338 27.7199 3.27706 26.7869 3.27706Z" stroke="#6E3D9F" stroke-width="2" stroke-miterlimit="10" stroke-linecap="round" stroke-linejoin="round"/>
<path id="Vector_12" d="M44.6088 47.0818L36.098 42.1681C35.7125 41.9455 35.2305 42.2237 35.2305 42.6689V52.4963C35.2305 52.9415 35.7125 53.2199 36.098 52.9972L38.2904 51.7315C38.3671 51.6872 38.4518 51.6584 38.5396 51.6469C38.6275 51.6353 38.7167 51.6411 38.8023 51.6641C38.8878 51.687 38.968 51.7265 39.0383 51.7805C39.1086 51.8344 39.1675 51.9016 39.2118 51.9783L40.8731 54.8558C40.959 55.0045 41.1005 55.1131 41.2665 55.1575C41.4324 55.202 41.6092 55.1787 41.7579 55.0928L43.5937 54.0328C43.6674 53.9903 43.7319 53.9337 43.7837 53.8662C43.8355 53.7988 43.8735 53.7218 43.8955 53.6396C43.9175 53.5574 43.9232 53.4717 43.9121 53.3874C43.901 53.3031 43.8734 53.2218 43.8308 53.1481L42.1695 50.2707C42.0801 50.1157 42.0559 49.9316 42.1022 49.7588C42.1485 49.5861 42.2616 49.4387 42.4165 49.3493L44.6088 48.0835C44.9943 47.8609 44.9943 47.3043 44.6088 47.0818Z" stroke="#6E3D9F" stroke-width="2" stroke-miterlimit="10" stroke-linecap="round" stroke-linejoin="round"/>
</g>
</g>
</g>
</g>
<defs>
<clipPath id="clip0_1915_2779">
<rect width="56" height="56" fill="white"/>
</clipPath>
</defs>
</svg>
